<svg width="83" height="91" viewBox="0 0 83 91" fill="none" xmlns="http://www.w3.org/2000/svg">
<rect x="2.5" y="2.5" width="78" height="86" fill="white" stroke="#E5E5E5" stroke-width="3"/>
<path d="M1.14062 1.30481L81.8606 89.6952" stroke="#E5E5E5" stroke-width="3"/>
<path d="M81.8613 1.30481L1.17635 89.6952" stroke="#E5E5E5" stroke-width="3"/>
<path opacity="0.2" d="M19.4316 43.9727V49.063L19.3804 50.396L19.3584 50.8135L23.7017 43.9727H25.2178V52H24.0825V47.0928L24.1045 46.126L24.1411 45.1738L19.8052 52H18.2891V43.9727H19.4316ZM32.4761 43.9727H33.8091L30.3447 47.8472L34.0947 52H32.6738L29.0117 47.9351V52H27.7959V43.9727H29.0117V47.8765L32.4761 43.9727ZM42.5176 47.979C42.5176 49.2876 42.188 50.3105 41.5288 51.0479C40.8696 51.7803 39.959 52.1465 38.7969 52.1465C38.0791 52.1465 37.4419 51.978 36.8853 51.6411C36.3286 51.3042 35.8989 50.8208 35.5962 50.1909C35.2935 49.561 35.1421 48.8237 35.1421 47.979C35.1421 46.6704 35.4692 45.6523 36.1235 44.9248C36.7778 44.1924 37.686 43.8262 38.8481 43.8262C39.9712 43.8262 40.8623 44.1997 41.5215 44.9468C42.1855 45.6938 42.5176 46.7046 42.5176 47.979ZM36.4019 47.979C36.4019 49.0044 36.6069 49.7856 37.0171 50.3228C37.4272 50.8599 38.0303 51.1284 38.8262 51.1284C39.6221 51.1284 40.2251 50.8623 40.6353 50.3301C41.0503 49.793 41.2578 49.0093 41.2578 47.979C41.2578 46.9585 41.0503 46.1846 40.6353 45.6572C40.2251 45.125 39.6172 44.8589 38.8115 44.8589C38.0156 44.8589 37.415 45.1201 37.0098 45.6426C36.6045 46.165 36.4019 46.9438 36.4019 47.979ZM45.8721 43.9727V47.3345H50.3691V43.9727H51.585V52H50.3691V48.3818H45.8721V52H44.6562V43.9727H45.8721ZM58.8433 43.9727H60.1763L56.7119 47.8472L60.4619 52H59.041L55.3789 47.9351V52H54.1631V43.9727H55.3789V47.8765L58.8433 43.9727ZM66.8926 52L66.6509 50.8574H66.5923C66.1919 51.3604 65.7915 51.7021 65.3911 51.8828C64.9956 52.0586 64.5 52.1465 63.9043 52.1465C63.1084 52.1465 62.4834 51.9414 62.0293 51.5312C61.5801 51.1211 61.3555 50.5376 61.3555 49.7808C61.3555 48.1597 62.6519 47.3101 65.2446 47.2319L66.6069 47.188V46.6899C66.6069 46.0601 66.4702 45.5962 66.1968 45.2983C65.9282 44.9956 65.4961 44.8442 64.9004 44.8442C64.2314 44.8442 63.4746 45.0493 62.6299 45.4595L62.2563 44.5293C62.6519 44.3145 63.084 44.146 63.5527 44.0239C64.0264 43.9019 64.5 43.8408 64.9736 43.8408C65.9307 43.8408 66.6387 44.0532 67.0977 44.478C67.5615 44.9028 67.7935 45.584 67.7935 46.5215V52H66.8926ZM64.146 51.1431C64.9028 51.1431 65.4961 50.9355 65.9258 50.5205C66.3604 50.1055 66.5776 49.5244 66.5776 48.7773V48.0522L65.3618 48.1035C64.395 48.1377 63.6968 48.2891 63.2671 48.5576C62.8423 48.8213 62.6299 49.2339 62.6299 49.7954C62.6299 50.2349 62.7617 50.5693 63.0254 50.7988C63.2939 51.0283 63.6675 51.1431 64.146 51.1431Z" fill="black"/>
</svg>
