<svg width="141" height="59" viewBox="0 0 141 59" fill="none" xmlns="http://www.w3.org/2000/svg">
<path d="M53.1624 22.1968C53.1624 22.1968 52.1458 22.0211 52.1458 20.5653C52.1458 19.1095 53.2377 18.2937 55.0324 17.9298C56.8145 17.5784 63.4911 16.0724 63.5288 11.6547C63.5539 7.23711 57.1157 6.81041 55.3963 10.4876C54.0158 13.4369 53.8903 17.2521 55.1704 19.2099C56.4505 21.1677 58.4585 22.7365 62.6754 22.611C66.8922 22.4855 70.4941 18.2435 70.4941 18.2435V4.30039C70.4941 4.30039 68.461 0.849117 64.5202 0.183962C59.3119 -0.681995 56.6262 1.79037 56.6262 1.79037C56.6262 1.79037 61.8345 0.987167 63.9931 2.63123C66.8294 4.7773 68.4484 7.11161 68.4484 12.1442C68.4484 17.1768 64.9469 21.9709 60.3912 21.7074C55.685 21.4313 54.3296 16.4238 55.9736 12.9098C57.6177 9.39573 61.0439 8.70548 61.0564 11.7928C61.069 14.4158 58.1071 16.0096 54.0158 17.3023C50.2382 18.4945 50.1629 20.8038 50.6649 21.5191C51.1669 22.2345 52.3968 22.1717 53.1624 22.1968Z" fill="#699C3F"/>
<path d="M87.7879 0.422414C87.7879 0.422414 88.8044 0.598115 88.8044 2.05393C88.8044 3.50974 87.7126 4.32549 85.9179 4.68945C84.1233 5.0534 77.4591 6.54686 77.4215 10.9645C77.3964 15.3821 83.8346 15.8088 85.554 12.1317C86.9345 9.18238 87.06 5.36715 85.7799 3.40934C84.4998 1.45152 82.4917 -0.11724 78.2875 0.00826075C74.0706 0.133762 70.4688 4.37569 70.4688 4.37569V18.3188C70.4688 18.3188 72.5019 21.7701 76.4426 22.4353C81.6509 23.3012 84.3366 20.8289 84.3366 20.8289C84.3366 20.8289 79.1283 21.6321 76.9697 19.988C74.1334 17.8419 72.5144 15.5076 72.5144 10.475C72.5144 5.44245 76.0159 0.648316 80.5716 0.911868C85.2779 1.18797 86.6333 6.19546 84.9892 9.70948C83.3577 13.2361 79.919 13.9138 79.9064 10.8264C79.8939 8.20347 82.8557 6.60961 86.947 5.31695C90.7246 4.12469 90.7999 1.81547 90.2979 1.10012C89.7708 0.397314 88.5534 0.447514 87.7879 0.422414Z" fill="#699C3F"/>
<path d="M2.40962 33.4668H0V46.4185H2.40962V33.4668Z" fill="#699C3F"/>
<path d="M10.2534 33.4668H7.84375V46.4185H10.2534V33.4668Z" fill="#699C3F"/>
<path d="M44.5405 33.4668H42.1309V46.4185H44.5405V33.4668Z" fill="#699C3F"/>
<path d="M79.5288 33.4668H77.1191V46.4185H79.5288V33.4668Z" fill="#699C3F"/>
<path d="M96.0952 33.4668H93.6855V46.4185H96.0952V33.4668Z" fill="#699C3F"/>
<path d="M110.064 33.4668H107.654V46.4185H110.064V33.4668Z" fill="#699C3F"/>
<path d="M118.449 33.4668H116.039V46.4185H118.449V33.4668Z" fill="#699C3F"/>
<path d="M133.645 34.496L135.878 33.605L140.999 46.4186H138.401L133.645 34.496Z" fill="#699C3F"/>
<path d="M135.792 34.496L133.558 33.605L128.438 46.4186H131.035L135.792 34.496Z" fill="#699C3F"/>
<path d="M24.1459 33.4668H21.7363V46.4185H24.1459V33.4668Z" fill="#699C3F"/>
<path d="M2.16602 38.6785V40.7493H8.17751V38.6785H2.16602Z" fill="#699C3F"/>
<path d="M73.2637 33.4585V35.5293H83.379V33.4585H73.2637Z" fill="#699C3F"/>
<path d="M131.365 41.4043V43.4751H138.067V41.4043H131.365Z" fill="#699C3F"/>
<path d="M109.977 33.3739L108.285 34.5681L116.225 45.8161L117.917 44.6219L109.977 33.3739Z" fill="#699C3F"/>
<path d="M31.0605 37.3072C31.0605 41.8754 25.8898 41.4738 24.1328 41.4738V39.6917H26.5424C27.1323 39.6917 27.6594 39.4532 28.0484 39.0642C28.4375 38.6751 28.6759 38.148 28.6759 37.5582C28.6759 36.391 27.7221 35.4372 26.555 35.4372H24.1454V33.4668C24.1454 33.4668 31.0605 32.7389 31.0605 37.3072Z" fill="#699C3F"/>
<path d="M24.334 41.4739C24.334 41.4739 25.9529 46.0672 30.9228 46.4186L31.2491 44.4106C31.2491 44.4106 28.1743 44.2349 26.706 41.4111L24.334 41.4739Z" fill="#699C3F"/>
<path d="M133.559 33.605H135.88L134.713 34.0693L133.559 33.605Z" fill="#699C3F"/>
<path d="M62.7624 36.0394C62.8252 36.0645 63.4652 34.1695 63.4652 34.1695C63.4652 34.1695 62.3106 33.3286 59.6877 33.3286C57.2027 33.3286 55.4081 34.4079 55.4081 36.8928C55.4081 39.3778 56.6756 39.7919 59.3363 40.8712C61.2941 41.6619 61.6078 42.2768 61.5702 43.0926C61.5451 43.695 61.3568 44.5609 59.0727 44.5609C56.7886 44.5609 55.9101 43.6573 55.9101 43.6573L55.1445 45.6905C55.1445 45.6905 56.0607 46.5815 59.3614 46.5815C62.8252 46.5815 64.0174 45.0504 64.0174 42.8667C64.0174 40.683 62.8628 39.9927 61.2313 39.2272C59.8634 38.5746 57.9056 38.3863 57.9056 36.6042C57.9056 35.0103 60.7544 35.048 62.7624 36.0394Z" fill="#699C3F"/>
<path d="M17.1691 53.2834L17.3573 52.681C17.3573 52.681 16.8679 52.3547 15.6882 52.3547C14.5085 52.3547 12.877 52.8316 12.877 55.7182C12.877 58.6047 14.9603 58.7929 15.9517 58.7929C16.9432 58.7929 17.3573 58.429 17.3573 58.429V57.6634C17.3573 57.6634 17.1063 58.1529 15.9266 58.1529C14.7469 58.1529 13.6676 57.5254 13.6676 55.6805C13.6676 53.8356 14.6465 53.0073 15.6882 53.0073C16.7298 52.9948 17.1691 53.2834 17.1691 53.2834Z" fill="#699C3F"/>
<path d="M29.1784 52.342C27.6222 52.342 26.3672 53.7853 26.3672 55.5674C26.3672 57.3495 27.6222 58.7928 29.1784 58.7928C30.7346 58.7928 31.9896 57.3495 31.9896 55.5674C31.9896 53.7853 30.7346 52.342 29.1784 52.342ZM29.1784 58.2406C28.0238 58.2406 27.0825 57.0483 27.0825 55.5674C27.0825 54.0991 28.0238 52.8942 29.1784 52.8942C30.333 52.8942 31.2743 54.0865 31.2743 55.5674C31.2743 57.0358 30.333 58.2406 29.1784 58.2406Z" fill="#699C3F"/>
<path d="M44.8164 53.296L45.0298 52.7312C45.0298 52.7312 44.6533 52.3547 43.3732 52.3547C42.0931 52.3547 41.2271 52.8442 41.2271 54.0616C41.2271 55.2789 42.5072 55.5299 43.323 55.9315C44.1764 56.3582 44.5403 56.5088 44.5403 57.2493C44.5403 57.9897 43.7999 58.178 42.9214 58.178C42.0429 58.178 41.3024 57.7638 41.3024 57.7638L41.1895 58.4666C41.1895 58.4666 41.4781 58.8557 42.9841 58.8557C44.4776 58.8557 45.331 58.2156 45.331 57.1238C45.331 56.0319 44.6282 55.806 43.6242 55.3668C42.6202 54.9275 41.9927 54.6138 41.9927 53.9737C41.9927 53.3336 42.5825 52.9948 43.4234 52.9948C44.2642 52.9948 44.8164 53.296 44.8164 53.296Z" fill="#699C3F"/>
<path d="M114.884 53.2834L115.072 52.681C115.072 52.681 114.583 52.3547 113.403 52.3547C112.223 52.3547 110.592 52.8316 110.592 55.7182C110.592 58.6047 112.675 58.7929 113.667 58.7929C114.658 58.7929 115.072 58.429 115.072 58.429V57.6634C115.072 57.6634 114.821 58.1529 113.641 58.1529C112.462 58.1529 111.382 57.5254 111.382 55.6805C111.382 53.8356 112.361 53.0073 113.403 53.0073C114.445 53.0073 114.884 53.2834 114.884 53.2834Z" fill="#699C3F"/>
<path d="M127.647 53.296L127.86 52.7312C127.86 52.7312 127.483 52.3547 126.203 52.3547C124.923 52.3547 124.057 52.8442 124.057 54.0616C124.057 55.2789 125.337 55.5299 126.153 55.9315C127.006 56.3582 127.37 56.5088 127.37 57.2493C127.37 57.9897 126.63 58.178 125.751 58.178C124.873 58.178 124.132 57.7638 124.132 57.7638L124.02 58.4666C124.02 58.4666 124.308 58.8557 125.814 58.8557C127.308 58.8557 128.161 58.2156 128.161 57.1238C128.161 56.0319 127.458 55.806 126.454 55.3668C125.45 54.9275 124.823 54.6138 124.823 53.9737C124.823 53.3336 125.413 52.9948 126.253 52.9948C127.094 52.9948 127.647 53.296 127.647 53.296Z" fill="#699C3F"/>
<path d="M55.5343 52.7312H54.7812V58.8305H55.5343V52.7312Z" fill="#699C3F"/>
<path d="M59.337 53.2708H58.584V58.843H59.337V53.2708Z" fill="#699C3F"/>
<path d="M63.1514 53.8357H62.3984V58.8306H63.1514V53.8357Z" fill="#699C3F"/>
<path d="M100.991 52.543H100.238V58.8306H100.991V52.543Z" fill="#699C3F"/>
<path d="M54.7812 52.7312C54.7812 52.7312 55.5719 52.3547 57.0152 52.3547C58.4584 52.3547 58.8977 52.9948 58.8977 52.9948C58.8977 52.9948 59.2365 52.3547 61.0437 52.3547C62.851 52.3547 63.1647 53.8356 63.1647 53.8356H62.4117C62.4117 53.8356 61.8972 53.0324 61.0312 53.0324C60.1652 53.0324 59.362 53.6097 59.362 53.6097L58.609 53.9109C58.609 53.9109 58.1572 53.0199 56.8897 53.0199C55.6221 53.0199 55.5594 53.2834 55.5594 53.2834L54.7812 52.7312Z" fill="#699C3F"/>
<path d="M77.1191 53.0952C76.6673 52.6434 76.0273 52.3547 75.337 52.3547C73.944 52.3547 72.8145 53.4842 72.8145 54.8773V56.3582C72.8145 57.7513 73.944 58.8808 75.337 58.8808H76.0273C76.3912 58.8808 76.8932 58.7678 77.3827 58.5796V57.9395C77.0062 58.1403 76.5544 58.2658 76.2532 58.2658H75.6382C74.6844 58.2658 73.6177 57.4877 73.6177 56.5339V55.806H77.8721V54.8773C77.8596 54.1745 77.5709 53.547 77.1191 53.0952ZM73.6051 55.053V54.7518C73.6051 53.798 74.3832 53.0199 75.337 53.0199C75.8139 53.0199 76.2532 53.2081 76.5544 53.5219C76.8681 53.8356 77.0564 54.2624 77.0564 54.7393V55.0405H73.6051V55.053Z" fill="#699C3F"/>
<path d="M88.3281 53.1204V52.8317V52.5305H90.813V53.1204H88.3281Z" fill="#699C3F"/>
<path d="M91.1256 58.4413C90.6864 58.7048 90.1843 58.8805 89.6572 58.8805C87.7245 58.8805 87.5488 57.1235 87.5488 57.1235V50.5849L88.3269 50.4971L88.3395 52.8188V53.1075L88.352 57.0859C88.352 57.0859 88.5905 58.1652 89.6572 58.1903C90.0965 58.1903 90.5232 58.0271 90.9123 57.7761L91.1256 58.4413Z" fill="#699C3F"/>
<path d="M100.628 51.1749C100.974 51.1749 101.255 50.894 101.255 50.5474C101.255 50.2009 100.974 49.9199 100.628 49.9199C100.281 49.9199 100 50.2009 100 50.5474C100 50.894 100.281 51.1749 100.628 51.1749Z" fill="#699C3F"/>
</svg>
