<svg width="141" height="59" viewBox="0 0 141 59" fill="none" xmlns="http://www.w3.org/2000/svg">
<path d="M53.1624 22.1968C53.1624 22.1968 52.1458 22.0211 52.1458 20.5653C52.1458 19.1095 53.2377 18.2937 55.0324 17.9298C56.8145 17.5784 63.4911 16.0724 63.5288 11.6547C63.5539 7.23711 57.1157 6.81041 55.3963 10.4876C54.0158 13.4369 53.8903 17.2521 55.1704 19.2099C56.4505 21.1677 58.4585 22.7365 62.6754 22.611C66.8922 22.4855 70.4941 18.2435 70.4941 18.2435V4.30039C70.4941 4.30039 68.461 0.849117 64.5202 0.183962C59.3119 -0.681995 56.6262 1.79037 56.6262 1.79037C56.6262 1.79037 61.8345 0.987167 63.9931 2.63123C66.8294 4.7773 68.4484 7.11161 68.4484 12.1442C68.4484 17.1768 64.9469 21.9709 60.3912 21.7074C55.685 21.4313 54.3296 16.4238 55.9736 12.9098C57.6177 9.39573 61.0439 8.70548 61.0564 11.7928C61.069 14.4158 58.1071 16.0096 54.0158 17.3023C50.2382 18.4945 50.1629 20.8038 50.6649 21.5191C51.1669 22.2345 52.3968 22.1717 53.1624 22.1968Z" fill="#699C3F"/>
<path d="M87.7879 0.422414C87.7879 0.422414 88.8044 0.598115 88.8044 2.05393C88.8044 3.50974 87.7126 4.32549 85.9179 4.68945C84.1233 5.0534 77.4591 6.54686 77.4215 10.9645C77.3964 15.3821 83.8346 15.8088 85.554 12.1317C86.9345 9.18238 87.06 5.36715 85.7799 3.40934C84.4998 1.45152 82.4917 -0.11724 78.2875 0.00826075C74.0706 0.133762 70.4688 4.37569 70.4688 4.37569V18.3188C70.4688 18.3188 72.5019 21.7701 76.4426 22.4353C81.6509 23.3012 84.3366 20.8289 84.3366 20.8289C84.3366 20.8289 79.1283 21.6321 76.9697 19.988C74.1334 17.8419 72.5144 15.5076 72.5144 10.475C72.5144 5.44245 76.0159 0.648316 80.5716 0.911868C85.2779 1.18797 86.6333 6.19546 84.9892 9.70948C83.3577 13.2361 79.919 13.9138 79.9064 10.8264C79.8939 8.20347 82.8557 6.60961 86.947 5.31695C90.7246 4.12469 90.7999 1.81547 90.2979 1.10012C89.7708 0.397314 88.5534 0.447514 87.7879 0.422414Z" fill="#699C3F"/>
<path d="M2.40962 33.4667H0V46.4184H2.40962V33.4667Z" fill="#699C3F"/>
<path d="M10.2534 33.4667H7.84375V46.4184H10.2534V33.4667Z" fill="#699C3F"/>
<path d="M44.5405 33.4667H42.1309V46.4184H44.5405V33.4667Z" fill="#699C3F"/>
<path d="M79.5288 33.4667H77.1191V46.4184H79.5288V33.4667Z" fill="#699C3F"/>
<path d="M96.0952 33.4667H93.6855V46.4184H96.0952V33.4667Z" fill="#699C3F"/>
<path d="M110.064 33.4667H107.654V46.4184H110.064V33.4667Z" fill="#699C3F"/>
<path d="M118.449 33.4667H116.039V46.4184H118.449V33.4667Z" fill="#699C3F"/>
<path d="M133.645 34.496L135.878 33.6049L140.999 46.4186H138.401L133.645 34.496Z" fill="#699C3F"/>
<path d="M135.792 34.496L133.558 33.6049L128.438 46.4186H131.035L135.792 34.496Z" fill="#699C3F"/>
<path d="M24.1459 33.4667H21.7363V46.4184H24.1459V33.4667Z" fill="#699C3F"/>
<path d="M2.16602 38.6784V40.7492H8.17751V38.6784H2.16602Z" fill="#699C3F"/>
<path d="M73.2637 33.4585V35.5293H83.379V33.4585H73.2637Z" fill="#699C3F"/>
<path d="M131.365 41.4043V43.475H138.067V41.4043H131.365Z" fill="#699C3F"/>
<path d="M109.977 33.374L108.285 34.5682L116.225 45.8162L117.917 44.622L109.977 33.374Z" fill="#699C3F"/>
<path d="M31.0605 37.3072C31.0605 41.8755 25.8898 41.4738 24.1328 41.4738V39.6917H26.5424C27.1323 39.6917 27.6594 39.4533 28.0484 39.0642C28.4375 38.6752 28.6759 38.1481 28.6759 37.5582C28.6759 36.3911 27.7221 35.4373 26.555 35.4373H24.1454V33.4669C24.1454 33.4669 31.0605 32.739 31.0605 37.3072Z" fill="#699C3F"/>
<path d="M24.334 41.4738C24.334 41.4738 25.9529 46.0671 30.9228 46.4185L31.2491 44.4105C31.2491 44.4105 28.1743 44.2348 26.706 41.411L24.334 41.4738Z" fill="#699C3F"/>
<path d="M133.559 33.6049H135.88L134.713 34.0693L133.559 33.6049Z" fill="#699C3F"/>
<path d="M62.7624 36.0396C62.8252 36.0647 63.4652 34.1696 63.4652 34.1696C63.4652 34.1696 62.3106 33.3287 59.6877 33.3287C57.2027 33.3287 55.4081 34.408 55.4081 36.893C55.4081 39.3779 56.6756 39.792 59.3363 40.8713C61.2941 41.662 61.6078 42.277 61.5702 43.0927C61.5451 43.6951 61.3568 44.5611 59.0727 44.5611C56.7886 44.5611 55.9101 43.6575 55.9101 43.6575L55.1445 45.6906C55.1445 45.6906 56.0607 46.5816 59.3614 46.5816C62.8252 46.5816 64.0174 45.0505 64.0174 42.8668C64.0174 40.6831 62.8628 39.9928 61.2313 39.2273C59.8634 38.5747 57.9056 38.3864 57.9056 36.6043C57.9056 35.0104 60.7544 35.0481 62.7624 36.0396Z" fill="#699C3F"/>
<path d="M17.1691 53.2835L17.3573 52.6811C17.3573 52.6811 16.8679 52.3548 15.6882 52.3548C14.5085 52.3548 12.877 52.8317 12.877 55.7182C12.877 58.6047 14.9603 58.793 15.9517 58.793C16.9432 58.793 17.3573 58.429 17.3573 58.429V57.6635C17.3573 57.6635 17.1063 58.1529 15.9266 58.1529C14.7469 58.1529 13.6676 57.5254 13.6676 55.6806C13.6676 53.8357 14.6465 53.0074 15.6882 53.0074C16.7298 52.9949 17.1691 53.2835 17.1691 53.2835Z" fill="#699C3F"/>
<path d="M29.1784 52.3421C27.6222 52.3421 26.3672 53.7854 26.3672 55.5675C26.3672 57.3496 27.6222 58.7929 29.1784 58.7929C30.7346 58.7929 31.9896 57.3496 31.9896 55.5675C31.9896 53.7854 30.7346 52.3421 29.1784 52.3421ZM29.1784 58.2406C28.0238 58.2406 27.0825 57.0484 27.0825 55.5675C27.0825 54.0991 28.0238 52.8943 29.1784 52.8943C30.333 52.8943 31.2743 54.0866 31.2743 55.5675C31.2743 57.0358 30.333 58.2406 29.1784 58.2406Z" fill="#699C3F"/>
<path d="M44.8164 53.2961L45.0298 52.7313C45.0298 52.7313 44.6533 52.3548 43.3732 52.3548C42.0931 52.3548 41.2271 52.8443 41.2271 54.0616C41.2271 55.279 42.5072 55.53 43.323 55.9316C44.1764 56.3583 44.5403 56.5089 44.5403 57.2493C44.5403 57.9898 43.7999 58.178 42.9214 58.178C42.0429 58.178 41.3024 57.7639 41.3024 57.7639L41.1895 58.4667C41.1895 58.4667 41.4781 58.8557 42.9841 58.8557C44.4776 58.8557 45.331 58.2157 45.331 57.1238C45.331 56.032 44.6282 55.8061 43.6242 55.3668C42.6202 54.9276 41.9927 54.6138 41.9927 53.9738C41.9927 53.3337 42.5825 52.9949 43.4234 52.9949C44.2642 52.9949 44.8164 53.2961 44.8164 53.2961Z" fill="#699C3F"/>
<path d="M114.884 53.2835L115.072 52.6811C115.072 52.6811 114.583 52.3548 113.403 52.3548C112.223 52.3548 110.592 52.8317 110.592 55.7182C110.592 58.6047 112.675 58.793 113.667 58.793C114.658 58.793 115.072 58.429 115.072 58.429V57.6635C115.072 57.6635 114.821 58.1529 113.641 58.1529C112.462 58.1529 111.382 57.5254 111.382 55.6806C111.382 53.8357 112.361 53.0074 113.403 53.0074C114.445 53.0074 114.884 53.2835 114.884 53.2835Z" fill="#699C3F"/>
<path d="M127.647 53.2961L127.86 52.7313C127.86 52.7313 127.483 52.3548 126.203 52.3548C124.923 52.3548 124.057 52.8443 124.057 54.0616C124.057 55.279 125.337 55.53 126.153 55.9316C127.006 56.3583 127.37 56.5089 127.37 57.2493C127.37 57.9898 126.63 58.178 125.751 58.178C124.873 58.178 124.132 57.7639 124.132 57.7639L124.02 58.4667C124.02 58.4667 124.308 58.8557 125.814 58.8557C127.308 58.8557 128.161 58.2157 128.161 57.1238C128.161 56.032 127.458 55.8061 126.454 55.3668C125.45 54.9276 124.823 54.6138 124.823 53.9738C124.823 53.3337 125.413 52.9949 126.253 52.9949C127.094 52.9949 127.647 53.2961 127.647 53.2961Z" fill="#699C3F"/>
<path d="M55.5343 52.7312H54.7812V58.8305H55.5343V52.7312Z" fill="#699C3F"/>
<path d="M59.337 53.2708H58.584V58.8431H59.337V53.2708Z" fill="#699C3F"/>
<path d="M63.1514 53.8356H62.3984V58.8306H63.1514V53.8356Z" fill="#699C3F"/>
<path d="M100.991 52.543H100.238V58.8306H100.991V52.543Z" fill="#699C3F"/>
<path d="M54.7812 52.7313C54.7812 52.7313 55.5719 52.3548 57.0152 52.3548C58.4584 52.3548 58.8977 52.9949 58.8977 52.9949C58.8977 52.9949 59.2365 52.3548 61.0437 52.3548C62.851 52.3548 63.1647 53.8357 63.1647 53.8357H62.4117C62.4117 53.8357 61.8972 53.0325 61.0312 53.0325C60.1652 53.0325 59.362 53.6098 59.362 53.6098L58.609 53.911C58.609 53.911 58.1572 53.02 56.8897 53.02C55.6221 53.02 55.5594 53.2835 55.5594 53.2835L54.7812 52.7313Z" fill="#699C3F"/>
<path d="M77.1191 53.0953C76.6673 52.6434 76.0273 52.3548 75.337 52.3548C73.944 52.3548 72.8145 53.4843 72.8145 54.8774V56.3583C72.8145 57.7513 73.944 58.8808 75.337 58.8808H76.0273C76.3912 58.8808 76.8932 58.7679 77.3827 58.5796V57.9396C77.0062 58.1404 76.5544 58.2659 76.2532 58.2659H75.6382C74.6844 58.2659 73.6177 57.4878 73.6177 56.534V55.8061H77.8721V54.8774C77.8596 54.1746 77.5709 53.5471 77.1191 53.0953ZM73.6051 55.0531V54.7519C73.6051 53.7981 74.3832 53.02 75.337 53.02C75.8139 53.02 76.2532 53.2082 76.5544 53.522C76.8681 53.8357 77.0564 54.2624 77.0564 54.7393V55.0405H73.6051V55.0531Z" fill="#699C3F"/>
<path d="M88.3281 53.1203V52.8316V52.5304H90.813V53.1203H88.3281Z" fill="#699C3F"/>
<path d="M91.1256 58.4414C90.6864 58.705 90.1843 58.8807 89.6572 58.8807C87.7245 58.8807 87.5488 57.1236 87.5488 57.1236V50.585L88.3269 50.4972L88.3395 52.819V53.1076L88.352 57.086C88.352 57.086 88.5905 58.1653 89.6572 58.1904C90.0965 58.1904 90.5232 58.0273 90.9123 57.7762L91.1256 58.4414Z" fill="#699C3F"/>
<path d="M100.628 51.175C100.974 51.175 101.255 50.894 101.255 50.5475C101.255 50.2009 100.974 49.92 100.628 49.92C100.281 49.92 100 50.2009 100 50.5475C100 50.894 100.281 51.175 100.628 51.175Z" fill="#699C3F"/>
</svg>
